<svg xmlns="http://www.w3.org/2000/svg" height="512" width="512" version="1.1" y="0px" x="0px" viewBox="0 0 512 512">

	<defs>
		<marker id="arrow-tl" refY="0.0" refX="0.0" overflow="visible" orient="auto">
			<path stroke-linejoin="round" d="m8 4l-12-4 12-4c-2 2-2 6 0 8z" fill-rule="evenodd" transform="scale(1.1) rotate(180) translate(1)" stroke="#1f2726" stroke-width="1" fill="#1f2726"/>
		</marker>
		<marker id="arrow-tr" refY="0.0" refX="0.0" overflow="visible" orient="auto">
			<path stroke-linejoin="round" d="m8 4l-12-4 12-4c-2 2-2 6 0 8z" fill-rule="evenodd" transform="scale(1.1) translate(1)" stroke="#1f2726" stroke-width="1" fill="#1f2726"/>
		</marker>
		<marker id="arrow-bl" refY="0" refX="0" overflow="visible" orient="auto">
			<path stroke-linejoin="round" d="m8 4-12-4 12-4c-2 2-2 6-6e-8 8z" fill-rule="evenodd" transform="matrix(1.1,0,0,1.1,1.1,0)" stroke="#1f2726" stroke-width="1" fill="#1f2726"/>
		</marker>
		<marker id="arrow-br" refY="0" refX="0" overflow="visible" orient="auto">
			<path stroke-linejoin="round" d="m8 4-12-4 12-4c-2 2-2 6-6e-8 8z" fill-rule="evenodd" transform="matrix(-1.1,0,0,-1.1,-1.1,0)" stroke="#1f2726" stroke-width="1" fill="#1f2726"/>
		</marker>
	</defs>

	<!--
		SYMBOL TEMPLATES
	-->

	<g id="symbol-cloud">
		<path d="m0 0c-6-11-18-19-31-19-18 0-33 13-35 30-11-1-21 8-21 20 0 10 6 15 10 17 5 2 10 3 11 3h68c0 0 23-3 23-26 0-14-11-25-25-26z" fill="#1f2726"/>
	</g>

	<g id="symbol-lycheejs">
		<path d="m512 246c-33-4-64-9-92-9-3 23-7 44-17 68 41-14 88-45 109-59z" fill="#1f2726"/>
		<path d="m0 246c33-4 64-9 92-9 3 23 7 44 17 68-41-14-88-45-109-59z" fill="#1f2726"/>
		<path d="m114 315c14 25 33 47 56 60-58 25-156 32-156 32s50-60 100-92z" fill="#1f2726"/>
		<path d="m398 315c-14 25-33 47-56 60 58 25 156 32 156 32s-50-60-100-92z" fill="#1f2726"/>
		<path d="m402 241c3-22-21-38-51-47-1-0-9-2-11 6 29 9 47 23 47 38 0 27-59 50-132 50-73 0-131-22-131-50 0-15 18-29 48-38v-0c0-9-11-7-12-7-32 10-54 27-52 48 6 69 50 140 147 140 98 0 139-72 147-140z" fill="#1f2726"/>
		<path d="m256 252c25 0 46-4 63-11 4-8 6-18 6-31 0-53-31-103-69-103s-69 51-69 103c0 14 2 24 6 31 17 7 38 11 63 11z" fill="#d0494b"/>
	</g>

	<g id="symbol-software">
		<g fill="#1f2726">
			<path d="m0 45h-24c-5 0-9 4-9 9s4 9 9 9h24c-8-6-7-13-0-19z"/>
			<path d="m22 0h-33c-5 0-9 4-9 9v33.258h27.987c0.76773 0 1.5 0.62882 1.5 1.5 0 0.76856-0.62814 1.5-1.5 1.5-3.9084 0-9.3523 3.5633-9.3523 9.3624s5.4439 9.3624 9.3523 9.3624c5.1647 0 9.3523-4.1921 9.3523-9.3624v-43.948h12.004c0.76772 0 1.5-0.62882 1.5-1.5-0.07-5.519-3.35-9.362-8.03-9.362zm-5.0949 7.9651c0.85384-7.2815 9.7174-7.153 10.329-0.06987h-10.329z"/>
			<path d="m-10 10 18 0" stroke="#32afe5" stroke-linecap="round" stroke-width="3" fill="none"/>
			<path d="m-10 18 18 0" stroke="#32afe5" stroke-linecap="round" stroke-width="3" fill="none"/>
			<path d="m-10 26 18 0" stroke="#32afe5" stroke-linecap="round" stroke-width="3" fill="none"/>
			<path d="m-10 34 18 0" stroke="#32afe5" stroke-linecap="round" stroke-width="3" fill="none"/>
		</g>
	</g>

	<g id="symbol-problem">
		<path d="m0 0h64l-32-64z" fill="#1f2726" stroke="#1f2726" stroke-linejoin="round" stroke-linecap="round" stroke-width="2"/>
		<path d="m32 -42v20" stroke="#32afe5" stroke-linecap="round" stroke-width="3" fill="none"/>
		<circle cx="32" cy="-12" r="3" fill="#32afe5"/>
	</g>

	<g id="symbol-solution">
		<circle cx="32" cy="-32" r="32" fill="#1f2726" stroke="#1f2726" stroke-linejoin="round" stroke-linecap="round" stroke-width="2"/>
		<path d="m46 -42-20 20-6-6" stroke="#32afe5" stroke-linecap="round" stroke-width="3" fill="none"/>
	</g>

	<!--
		ROBOT TEMPLATES
	-->

	<g id="robot-normal">
		<g fill="#d0494b">
			<path d="m83 5c-16 0-30 16-36 36 10 4 22 6 36 6 16 0 26-4 36-6-6-22-22-36-36-36z"/>
			<path d="m43 62c-0 4-0 4-0 8 0 30 20 60 40 60s40-30 40-60c0-4-0-4-0-8-12-4-24-7-40-7-14 0-30 4-40 7z"/>
			<g transform="translate(4, 110) rotate(-120, 0, 0)">
				<path d="m0 5s20 60 40 50-30-60-40-50z"/>
			</g>
			<g transform="translate(162, 110) rotate(120, 0, 0)">
				<path d="m0 5s-20 60-40 50c-20-14 30-60 40-50z"/>
			</g>
			<g stroke="#363f3e" stroke-linecap="round" fill="none">
				<path d="m64 30c-0-5 12-5 12 0" stroke-width="4"/>
				<path d="m88 30c-0-5 12-5 12 0" stroke-width="4"/>
			</g>
		</g>
	</g>

	<g id="robot-problem">
		<g fill="#d0494b">
			<path d="m86 5c-16-2-32 12-40 32 10 4 20 8 32 10 12 1 26 1 40-2-4-22-16-40-32-40z"/>
			<path d="m43 62c-0 4-0 4-0 8 0 30 20 60 40 60s40-30 40-60c0-4-0-4-0-8-12-4-24-7-40-7-14 0-30 4-40 7z"/>
			<path d="m110 5s20 60 40 50-30-60-40-50z"/>
			<path d="m50 5s-20 60-40 50c-20-14 30-60 40-50z"/>
			<g stroke="#363f3e" stroke-linecap="round" fill="none">
				<path d="m78 22-12 6" stroke-width="4"/>
				<path d="m90 24 10 8" stroke-width="4"/>
			</g>
		</g>
	</g>

	<g id="robot-solution">
		<g fill="#d0494b">
			<path d="m83 5c-16 0-30 16-36 36 10 4 22 6 36 6 16 0 26-4 36-6-6-22-22-36-36-36z"/>
			<path d="m43 62c-0 4-0 4-0 8 0 30 20 60 40 60s40-30 40-60c0-4-0-4-0-8-12-4-24-7-40-7-14 0-30 4-40 7z"/>
			<g transform="translate(176, 0) rotate(80, 0, 0)">
				<path d="m0 5s20 60 40 50-30-60-40-50z"/>
			</g>
			<g transform="translate(-10, 0) rotate(-80, 0, 0)">
				<path d="m0 5s-20 60-40 50c-20-14 30-60 40-50z"/>
			</g>
			<g stroke="#363f3e" stroke-linecap="round" fill="none">
				<path d="m64 30c-0-5 12-5 12 0" stroke-width="4"/>
				<path d="m88 30c-0-5 12-5 12 0" stroke-width="4"/>
			</g>
		</g>
	</g>

	<g id="robot-lycheejs">
		<g fill="#d0494b">
			<path d="m83 5c-16 0-30 16-36 36 10 4 22 6 36 6 16 0 26-4 36-6-6-22-22-36-36-36z"/>
			<path d="m43 62c-0 4-0 4-0 8 0 30 20 60 40 60s40-30 40-60c0-4-0-4-0-8-12-4-24-7-40-7-14 0-30 4-40 7z"/>
			<g transform="translate(126, -10) rotate(10, 0, 0)">
				<path d="m0 5s20 60 40 50-30-60-40-50z"/>
			</g>
			<g transform="translate(40, -10) rotate(-10, 0, 0)">
				<path d="m0 5s-20 60-40 50c-20-14 30-60 40-50z"/>
			</g>
			<g stroke="#363f3e" stroke-linecap="round" fill="none">
				<path d="m64 30c-0-5 12-5 12 0" stroke-width="4"/>
				<path d="m88 30c-0-5 12-5 12 0" stroke-width="4"/>
			</g>
		</g>
	</g>

</svg>
