<?xml version="1.0" encoding="UTF-8" standalone="no"?>
<svg xmlns:rdf="http://www.w3.org/1999/02/22-rdf-syntax-ns#" xmlns="http://www.w3.org/2000/svg" xml:space="preserve" height="256" viewBox="0 0 512 256.00001" width="512" version="1.1" y="0px" x="0px" enable-background="new 0 0 666.5 206.9">
<defs>
	<marker id="a" refY="0.0" refX="0.0" overflow="visible" orient="auto">
		<path stroke-linejoin="round" d="m8.7186 4.0337l-10.926-4.0177 10.926-4.0177c-1.7455 2.3721-1.7355 5.6174 0 8.0354z" fill-rule="evenodd" transform="scale(1.1) rotate(180) translate(1)" stroke="#1f2726" stroke-width=".625" fill="#1f2726"/>
	</marker>
</defs>
<g transform="translate(0,-9.0005)" fill="#d0494b">
	<path d="m217.35 102.85c-0.3 2.3-0.4 4.8-0.4 7.5 0 29.9 17.5 58.9 39.1 58.9s39.1-29 39.1-58.9c0-2.6-0.1-4.9-0.4-7.1-11.2-4.4-24.7-7-39.3-7-14 0.1-27.1 2.5-38.1 6.6z"/>
	<path d="m363.55 66.955s-68.2 8-58.9 27.8 65.8-15.8 58.9-27.8z"/>
	<path d="m166.35 141.95s21.9-65.1 39.3-51.9-29 61.1-39.3 51.9z"/>
	<path d="m256.05 48.555c-16 0-29.8 14.9-35.8 36.2 10.4 3.5 22.4 5.5 35.3 5.5 13.3 0 25.7-2.1 36.3-5.9-6.2-21.1-19.9-35.8-35.8-35.8zm-4.7 29.3c-0.4 0.4-1 0.7-1.6 0.7s-1.2-0.2-1.6-0.7c-1.7-1.7-3.4-2.5-5.2-2.5-3.1 0-5.5 2.5-5.5 2.5-0.9 0.9-2.3 0.9-3.2 0.1-0.9-0.9-0.9-2.3-0.1-3.2 0.1-0.2 3.7-3.8 8.7-3.9 3.1 0 6 1.3 8.5 3.8 0.9 0.9 0.9 2.3 0 3.2zm23.5 0c-1.7-1.7-3.4-2.5-5.2-2.5h-0.1c-3.1 0-5.5 2.5-5.5 2.5-0.4 0.5-1 0.7-1.6 0.7s-1.1-0.2-1.6-0.6c-0.9-0.9-0.9-2.3-0.1-3.2 0.1-0.2 3.7-3.8 8.7-3.9h0.1c3 0 5.9 1.3 8.4 3.8 0.9 0.9 0.9 2.3 0 3.2-0.7 0.9-2.2 0.9-3.1 0z"/>
</g>
<rect height="42.8" width="17.7" y="80.756" x="56.056" fill="#32afe5"/>
<path d="m95.7 125.7-30.429-61.024c-0.50047-0.90176-2.0019-0.90176-2.5024 0l-30.629 61.223c-0.20019 0.40078-0.20019 0.90176 0.1001 1.4027 0.30028 0.40078 0.70066 0.70137 1.2011 0.70137h61.158c0.80076 0 1.4013-0.60118 1.4013-1.4027 0-0.40079-0.10009-0.70137-0.30028-0.90176zm-33.132-39.08c0-0.80156 0.60057-1.4027 1.4013-1.4027 0.80076 0 1.4013 0.60118 1.4013 1.4027v21.241c0 0.80157-0.60057 1.4028-1.4013 1.4028-0.80076 0-1.4013-0.60118-1.4013-1.4028v-21.241zm1.4013 33.265c-1.5014 0-2.7026-1.2024-2.7026-2.7053s1.2011-2.7053 2.7026-2.7053c1.5014 0 2.7026 1.2024 2.7026 2.7053s-1.2011 2.7053-2.7026 2.7053z" fill="#1f2726"/>
<circle cy="95.589" cx="445.84" r="24.3" fill="#32afe5"/>
<path d="m448 64c-17.694 0-32 14.4-32 32s14.4 32 32 32c17.694 0 32-14.4 32-32s-14.4-32-32-32zm14.212 23.624-20.047 18.729c-0.28235 0.28235-0.5647 0.37647-0.94118 0.37647-0.37646 0-0.65881-0.0941-0.94116-0.37647l-6.68-6.68c-0.5647-0.56471-0.5647-1.4118 0-1.8824 0.56471-0.5647 1.4118-0.5647 1.8824 0l5.7412 5.7412 19.106-17.788c0.56471-0.47059 1.4118-0.47059 1.8824 0.09412 0.5647 0.47059 0.5647 1.3176 0 1.7882z" fill="#1f2726"/>
<path stroke-linejoin="round" marker-end="url(#a)" d="m65.419 149.03s170.24 57.551 380.04 0" stroke="#1f2726" stroke-linecap="round" stroke-miterlimit="10" stroke-width="2.8009" fill="none"/>
<g font-weight="300" fill="#d0494b">
	<text style="letter-spacing:2" y="223.75586" x="204.84879"><tspan font-weight="300" font-size="20px" fill="#ffffff">Software</tspan></text>
	<text style="letter-spacing:2" y="223.13817" x="18.744673"><tspan font-weight="300" font-size="20px" fill="#ffffff">Problem</tspan></text>
	<text style="letter-spacing:2" y="223.13817" x="403.28052"><tspan font-weight="300" font-size="20px" fill="#ffffff">Solution</tspan></text>
</g>
</svg>
