<?xml version="1.0" encoding="UTF-8" standalone="no"?>
<svg height="512" width="512" version="1.1" y="0px" x="0px" viewBox="0 0 512 512">
<defs>
	<marker id="b" refY="0.0" refX="0.0" orient="auto" overflow="visible">
		<path stroke-linejoin="round" d="m8.7186 4.0337l-10.926-4.0177 10.926-4.0177c-1.7455 2.3721-1.7355 5.6174 0 8.0354z" fill-rule="evenodd" transform="scale(1.1) rotate(180) translate(1)" stroke="#1f2726" stroke-width=".625" fill="#1f2726"/>
	</marker>
	<marker id="d" refY="0.0" refX="0.0" orient="auto" overflow="visible">
		<path stroke-linejoin="round" d="m8.7186 4.0337l-10.926-4.0177 10.926-4.0177c-1.7455 2.3721-1.7355 5.6174 0 8.0354z" fill-rule="evenodd" transform="scale(1.1) translate(1)" stroke="#1f2726" stroke-width=".625" fill="#1f2726"/>
	</marker>
	<marker id="a" refY="0" refX="0" orient="auto" overflow="visible">
		<path stroke-linejoin="round" d="m8.7186 4.0337-10.926-4.0177 10.926-4.0177c-1.7455 2.3721-1.7354 5.6175-6e-7 8.0354z" fill-rule="evenodd" transform="matrix(-1.1,0,0,-1.1,-1.1,0)" stroke="#1f2726" stroke-width=".625" fill="#1f2726"/>
	</marker>
	<marker id="c" refY="0" refX="0" orient="auto" overflow="visible">
		<path stroke-linejoin="round" d="m8.7186 4.0337-10.926-4.0177 10.926-4.0177c-1.7455 2.3721-1.7354 5.6175-6e-7 8.0354z" fill-rule="evenodd" transform="matrix(1.1,0,0,1.1,1.1,0)" stroke="#1f2726" stroke-width=".625" fill="#1f2726"/>
	</marker>
</defs>
<g transform="translate(0,16)">
	<g transform="translate(32,-208)">
		<rect height="42.8" width="17.7" y="336.76" x="56.056" fill="#32afe5"/>
		<path d="m95.7 381.7-30.429-61.02c-0.50047-0.90176-2.0019-0.90176-2.5024 0l-30.629 61.22c-0.20019 0.40078-0.20019 0.90176 0.1001 1.4027 0.3 0.4 0.7 0.7 1.201 0.7h61.158c0.80076 0 1.4013-0.60118 1.4013-1.4027 0-0.40079-0.10009-0.70137-0.30028-0.90176zm-33.132-39.08c0-0.80155 0.60057-1.4027 1.4013-1.4027 0.80076 0 1.4013 0.60118 1.4013 1.4027v21.241c0 0.80157-0.60057 1.4028-1.4013 1.4028-0.80076 0-1.4013-0.60118-1.4013-1.4028v-21.241zm1.4013 33.265c-1.5014 0-2.7026-1.2024-2.7026-2.7053s1.2011-2.7053 2.7026-2.7053c1.5014 0 2.7026 1.2024 2.7026 2.7053s-1.2011 2.7053-2.7026 2.7053z" fill="#1f2726"/>
	</g>
	<g transform="translate(-32,-208)">
		<circle cy="351.59" cx="445.84" r="24.3" fill="#32afe5"/>
		<path d="m448 320c-17.694 0-32 14.4-32 32s14.4 32 32 32c17.694 0 32-14.4 32-32s-14.4-32-32-32zm14.212 23.624-20.047 18.729c-0.28235 0.28235-0.5647 0.37647-0.94118 0.37647-0.37646 0-0.65881-0.0941-0.94116-0.37647l-6.68-6.68c-0.5647-0.56471-0.5647-1.4118 0-1.8824 0.56471-0.5647 1.4118-0.5647 1.8824 0l5.7412 5.7412 19.106-17.788c0.56471-0.47059 1.4118-0.47059 1.8824 0.0941 0.5647 0.47059 0.5647 1.3176 0 1.7882z" fill="#1f2726"/>
	</g>
	<g fill="#d0494b" transform="translate(17.753 -75.622)">
		<path d="m40.5 327.2c-0.3 2.3-0.4 4.8-0.4 7.5 0 29.9 17.5 58.9 39.1 58.9s39.1-29 39.1-58.9c0-2.6-0.1-4.9-0.4-7.1-11.2-4.4-24.7-7-39.3-7-14 0.1-27.1 2.5-38.1 6.6z"/>
		<path d="m111.7 283.1s24.9 64 41.7 50-31.8-59.6-41.7-50z"/>
		<path d="m43.8 282.4s-22.8 64.8-40 51.3c-17.3-13.4 29.8-60.6 40-51.3z"/>
		<path d="m81.4 273c-15.9-1.7-31.2 11.6-39.5 32.1 9.9 4.6 21.7 7.9 34.4 9.3 13.2 1.4 25.7 0.7 36.7-1.9-3.7-21.6-15.8-37.8-31.6-39.5zm-8.7 21.6-10.4 4.2c-0.4 0.2-0.8 0.2-1.2 0.2-0.9-0.1-1.7-0.7-2-1.5-0.5-1.3 0.1-2.7 1.4-3.3l10.4-4.2c1.3-0.5 2.7 0.1 3.3 1.4 0.4 1.2-0.2 2.6-1.5 3.2zm25.4 7.1c-0.5 0.8-1.4 1.2-2.3 1.1-0.4 0-0.8-0.2-1.1-0.4l-9.2-6.4c-1.1-0.8-1.4-2.3-0.6-3.5 0.8-1.1 2.3-1.4 3.5-0.6l9.2 6.4c1 0.7 1.3 2.3 0.5 3.4z"/>
	</g>
	<g fill="#d0494b">
		<path d="m377 250.23c-0.3 2.3-0.4 4.8-0.4 7.5 0 29.9 17.5 58.9 39.1 58.9s39.1-29 39.1-58.9c0-2.6-0.1-4.9-0.4-7.1-11.2-4.4-24.7-7-39.3-7-14 0.1-27.1 2.5-38.1 6.6z"/>
		<path d="m503.55 191.76s-56.411 39.154-38.887 52.248c17.612 13.047 50.623-44.907 38.887-52.248z"/>
		<path d="m415.7 195.93c-16 0-29.8 14.9-35.8 36.2 10.4 3.5 22.4 5.5 35.3 5.5 13.3 0 25.7-2.1 36.3-5.9-6.2-21.1-19.9-35.8-35.8-35.8zm-4.7 29.3c-0.4 0.4-1 0.7-1.6 0.7s-1.2-0.2-1.6-0.7c-1.7-1.7-3.4-2.5-5.2-2.5-3.1 0-5.5 2.5-5.5 2.5-0.9 0.9-2.3 0.9-3.2 0.1-0.9-0.9-0.9-2.3-0.1-3.2 0.1-0.2 3.7-3.8 8.7-3.9 3.1 0 6 1.3 8.5 3.8 0.8 0.9 0.8 2.3 0 3.2zm23.5 0c-1.7-1.7-3.4-2.5-5.2-2.5h-0.1c-3.1 0-5.5 2.5-5.5 2.5-0.4 0.5-1 0.7-1.6 0.7s-1.1-0.2-1.6-0.6c-0.9-0.9-0.9-2.3-0.1-3.2 0.1-0.2 3.7-3.8 8.7-3.9h0.1c3 0 5.9 1.3 8.4 3.8 0.9 0.9 0.9 2.3 0 3.2-0.8 0.9-2.2 0.9-3.1 0z"/>
		<path d="m326.64 191.76s56.411 39.154 38.887 52.248c-17.612 13.047-50.623-44.907-38.887-52.248z"/>
	</g>
	<g transform="matrix(.55101 0 0 .58437 52.759 80.514)">
		<g fill="#1f2726">
			<path d="m485 500.5c-8.5-1.5-25.1-4.1-41.1-4.1h-0.7c0 1 0 2-0.1 2.9-1 8-3.1 18-7.6 28.2 18.5-6.1 40.1-20.4 49.5-27z"/>
			<path d="m433.2 532.2c-2.7 5.1-6 10.1-10.2 14.8-4.5 5.1-9.7 9.3-15.4 12.7 26.2 11.3 71.2 14.4 71.2 14.4s-22.6-27-45.6-41.9z"/>
			<path d="m314.2 547.2c-3.9-4.3-7.4-9.3-10.2-14.7-22.8 14.9-45.1 41.6-45.1 41.6s44.7-3.1 70.9-14.3c-5.8-3.4-11.1-7.6-15.6-12.6z"/>
			<path d="m294.4 499.2c-0.1-0.9-0.1-1.8 0-2.7h-0.6c-15.9 0-32.6 2.5-41.1 4.1 9.2 6.4 30.4 20.4 48.8 26.8-3.9-8.7-6.3-18.2-7.1-28.2z"/>
			<path d="m435.6 498.5c1.2-10-9.4-17-23.4-21.5-0.5-0.1-3.9-1.1-4.9 2.9 13 4.1 21.3 10.3 21.3 17.2 0 12.5-26.8 22.6-59.9 22.6s-59.4-10.1-59.4-22.6c0-6.9 8.8-13.1 21.8-17.2 0-4-4.9-3.4-5.4-3.3-14.4 4.8-24.4 12.1-23.6 21.8 2.6 31.4 22.6 63.6 66.8 63.6 44.4 0.2 63-32.4 66.7-63.5z"/>
		</g>
		<path fill="#d0494b" d="m368.7 503.5c11.1 0 20.9-2 28.6-5.1 1.7-3.4 2.6-8.1 2.6-14.2 0-23.9-14-47-31.2-47s-31.2 23.1-31.2 47c0 6.2 1 10.8 2.7 14.3 7.6 3 17.4 5 28.5 5z"/>
	</g>
	<text style="letter-spacing:2" font-weight="300" letter-spacing="2" font-size="15.736px" y="443.98022" x="213.56816" fill="#d0494b"><tspan font-weight="300" font-size="20px" fill="#ffffff">Training</tspan></text>
	<rect height="32" width="24" y="22.24" x="244.7" fill="#32afe5"/>
	<g transform="matrix(.69793 0 0 .69869 -1.361 16)" fill="#1f2726">
		<path d="m364.9 78.2c0-5.8 3-10.4 6.8-13.4h-27.8-1.9-5.7c-7.4 0-13.4 6-13.4 13.4s6 13.4 13.4 13.4h35.5c-3.9-3-6.9-7.6-6.9-13.4z"/>
		<path d="m403.1 0h-47.7c-7.4 0-13.4 6-13.4 13.4v47.6h40.1c1.1 0 1.9 0.9 1.9 1.9 0 1.1-0.9 1.9-1.9 1.9-5.6 0-13.4 5.1-13.4 13.4s7.8 13.4 13.4 13.4c7.4 0 13.4-6 13.4-13.4v-62.9h17.2c1.1 0 1.9-0.9 1.9-1.9-0.1-7.9-4.8-13.4-11.5-13.4zm-24.8 53.4h-21c-1.1 0-1.9-0.9-1.9-1.9 0-1.1 0.9-1.9 1.9-1.9h21c1.1 0 1.9 0.9 1.9 1.9 0 1.1-0.9 1.9-1.9 1.9zm0-11.4h-21c-1.1 0-1.9-0.9-1.9-1.9s0.9-1.9 1.9-1.9h21c1.1 0 1.9 0.9 1.9 1.9s-0.9 1.9-1.9 1.9zm0-11.5h-21c-1.1 0-1.9-0.9-1.9-1.9 0-1.1 0.9-1.9 1.9-1.9h21c1.1 0 1.9 0.9 1.9 1.9 0 1.1-0.9 1.9-1.9 1.9zm0-11.4h-21c-1.1 0-1.9-0.9-1.9-1.9 0-1.1 0.9-1.9 1.9-1.9h21c1.1 0 1.9 0.9 1.9 1.9s-0.9 1.9-1.9 1.9zm17.5-7.7c1.1-6 5-7.3 6.6-7.6 0.2 0 0.5-0.1 0.7-0.1 4 0 6.9 3 7.5 7.6h-14.8z"/>
	</g>
	<text style="letter-spacing:2" font-weight="300" letter-spacing="2" font-size="15.736px" y="111.34024" x="208.78128" fill="#d0494b"><tspan font-weight="300" font-size="20px" fill="#ffffff">Software</tspan></text>
	<g stroke-linejoin="round" stroke="#1f2726" stroke-linecap="round" stroke-miterlimit="10" fill="none">
		<path d="m319.1 39.451c36.401 5.8679 83.245 20.028 91.566 54.99" marker-start="url(#d)" stroke-width="3.0761"/>
		<path marker-end="url(#b)" d="m195.03 38.336c-35.59 5.708-65.03 23.015-89.52 53.494" stroke-width="3"/>
		<path marker-end="url(#a)" d="m320.48 393.15c35.589-5.7084 65.03-23.015 89.525-53.494" stroke-width="3"/>
		<path d="m188.77 392.7c-36.4-5.87-83.25-20.03-91.567-54.99" marker-start="url(#c)" stroke-width="3.0761"/>
	</g>
</g>
</svg>
