<svg xmlns:rdf="http://www.w3.org/1999/02/22-rdf-syntax-ns#" xmlns="http://www.w3.org/2000/svg" height="512" width="512" version="1.1" y="0px" x="0px" xmlns:cc="http://creativecommons.org/ns#" xmlns:dc="http://purl.org/dc/elements/1.1/" viewBox="0 0 512 512">
 <defs>
  <marker id="e" refY="0.0" refX="0.0" overflow="visible" orient="auto">
   <path stroke-linejoin="round" d="m8.7186 4.0337l-10.926-4.0177 10.926-4.0177c-1.7455 2.3721-1.7355 5.6174 0 8.0354z" fill-rule="evenodd" transform="scale(1.1) rotate(180) translate(1)" stroke="#1f2726" stroke-width=".625" fill="#1f2726"/>
  </marker>
  <marker id="a" refY="0.0" refX="0.0" overflow="visible" orient="auto">
   <path stroke-linejoin="round" d="m8.7186 4.0337l-10.926-4.0177 10.926-4.0177c-1.7455 2.3721-1.7355 5.6174 0 8.0354z" fill-rule="evenodd" transform="scale(1.1) translate(1)" stroke="#1f2726" stroke-width=".625" fill="#1f2726"/>
  </marker>
  <marker id="f" refY="0" refX="0" overflow="visible" orient="auto">
   <path stroke-linejoin="round" d="m8.7186 4.0337-10.926-4.0177 10.926-4.0177c-1.7455 2.3721-1.7354 5.6175-6e-7 8.0354z" fill-rule="evenodd" transform="matrix(-1.1,0,0,-1.1,-1.1,0)" stroke="#1f2726" stroke-width=".625" fill="#1f2726"/>
  </marker>
  <marker id="d" refY="0" refX="0" overflow="visible" orient="auto">
   <path stroke-linejoin="round" d="m8.7186 4.0337-10.926-4.0177 10.926-4.0177c-1.7455 2.3721-1.7354 5.6175-6e-7 8.0354z" fill-rule="evenodd" transform="matrix(1.1,0,0,1.1,1.1,0)" stroke="#1f2726" stroke-width=".625" fill="#1f2726"/>
  </marker>
 </defs>
 <g>
  <g transform="translate(32,-192)">
   <rect height="42.8" width="17.7" y="336.76" x="56.056" fill="#32afe5"/>
   <path d="m95.7 381.7-30.429-61.02c-0.50047-0.90176-2.0019-0.90176-2.5024 0l-30.629 61.22c-0.20019 0.40078-0.20019 0.90176 0.1001 1.4027 0.3 0.4 0.7 0.7 1.201 0.7h61.158c0.80076 0 1.4013-0.60118 1.4013-1.4027 0-0.40079-0.10009-0.70137-0.30028-0.90176zm-33.132-39.08c0-0.80155 0.60057-1.4027 1.4013-1.4027 0.80076 0 1.4013 0.60118 1.4013 1.4027v21.241c0 0.80157-0.60057 1.4028-1.4013 1.4028-0.80076 0-1.4013-0.60118-1.4013-1.4028v-21.241zm1.4013 33.265c-1.5014 0-2.7026-1.2024-2.7026-2.7053s1.2011-2.7053 2.7026-2.7053c1.5014 0 2.7026 1.2024 2.7026 2.7053s-1.2011 2.7053-2.7026 2.7053z" fill="#1f2726"/>
  </g>
  <g fill="#d0494b" transform="translate(17.753 -59.622)">
   <path d="m40.5 327.2c-0.3 2.3-0.4 4.8-0.4 7.5 0 29.9 17.5 58.9 39.1 58.9s39.1-29 39.1-58.9c0-2.6-0.1-4.9-0.4-7.1-11.2-4.4-24.7-7-39.3-7-14 0.1-27.1 2.5-38.1 6.6z"/>
   <path d="m111.7 283.1s24.9 64 41.7 50-31.8-59.6-41.7-50z"/>
   <path d="m43.8 282.4s-22.8 64.8-40 51.3c-17.3-13.4 29.8-60.6 40-51.3z"/>
   <path d="m81.4 273c-15.9-1.7-31.2 11.6-39.5 32.1 9.9 4.6 21.7 7.9 34.4 9.3 13.2 1.4 25.7 0.7 36.7-1.9-3.7-21.6-15.8-37.8-31.6-39.5zm-8.7 21.6-10.4 4.2c-0.4 0.2-0.8 0.2-1.2 0.2-0.9-0.1-1.7-0.7-2-1.5-0.5-1.3 0.1-2.7 1.4-3.3l10.4-4.2c1.3-0.5 2.7 0.1 3.3 1.4 0.4 1.2-0.2 2.6-1.5 3.2zm25.4 7.1c-0.5 0.8-1.4 1.2-2.3 1.1-0.4 0-0.8-0.2-1.1-0.4l-9.2-6.4c-1.1-0.8-1.4-2.3-0.6-3.5 0.8-1.1 2.3-1.4 3.5-0.6l9.2 6.4c1 0.7 1.3 2.3 0.5 3.4z"/>
  </g>
 </g>
 <g transform="translate(0,16)">
  <rect height="32" width="24" y="22.24" x="244.7" fill="#32afe5"/>
  <g transform="matrix(.69793 0 0 .69869 -1.361 16)" fill="#1f2726">
   <path d="m364.9 78.2c0-5.8 3-10.4 6.8-13.4h-35.4c-7.4 0-13.4 6-13.4 13.4s6 13.4 13.4 13.4h35.5c-3.9-3-6.9-7.6-6.9-13.4z"/>
   <path d="m403.1 0h-47.7c-7.4 0-13.4 6-13.4 13.4v47.6h40.1c1.1 0 1.9 0.9 1.9 1.9 0 1.1-0.9 1.9-1.9 1.9-5.6 0-13.4 5.1-13.4 13.4s7.8 13.4 13.4 13.4c7.4 0 13.4-6 13.4-13.4v-62.9h17.2c1.1 0 1.9-0.9 1.9-1.9-0.1-7.9-4.8-13.4-11.5-13.4zm-24.8 53.4h-21c-1.1 0-1.9-0.9-1.9-1.9 0-1.1 0.9-1.9 1.9-1.9h21c1.1 0 1.9 0.9 1.9 1.9 0 1.1-0.9 1.9-1.9 1.9zm0-11.4h-21c-1.1 0-1.9-0.9-1.9-1.9s0.9-1.9 1.9-1.9h21c1.1 0 1.9 0.9 1.9 1.9s-0.9 1.9-1.9 1.9zm0-11.5h-21c-1.1 0-1.9-0.9-1.9-1.9 0-1.1 0.9-1.9 1.9-1.9h21c1.1 0 1.9 0.9 1.9 1.9 0 1.1-0.9 1.9-1.9 1.9zm0-11.4h-21c-1.1 0-1.9-0.9-1.9-1.9 0-1.1 0.9-1.9 1.9-1.9h21c1.1 0 1.9 0.9 1.9 1.9s-0.9 1.9-1.9 1.9zm17.5-7.7c1.1-6 5-7.3 6.6-7.6 0.2 0 0.5-0.1 0.7-0.1 4 0 6.9 3 7.5 7.6h-14.8z"/>
  </g>
 </g>
 <g stroke-linejoin="round" stroke="#1f2726" stroke-linecap="round" stroke-miterlimit="10" fill="none">
  <path marker-start="url(#a)" stroke-width="3.0761" d="m319.1 55.451c36.401 5.8679 83.245 20.028 91.566 54.99"/>
  <path stroke-width="3" marker-end="url(#e)" d="m195.03 54.336c-35.59 5.708-65.03 23.015-89.52 53.494"/>
  <path stroke-width="3" marker-end="url(#f)" d="m320.48 409.15c35.589-5.7084 65.03-23.015 89.525-53.494"/>
  <path marker-start="url(#d)" stroke-width="3.0761" d="m188.77 408.7c-36.4-5.87-83.25-20.03-91.567-54.99"/>
 </g>
 <g>
  <text letter-spacing="2" style="letter-spacing:2" y="463.34024" x="178.31015" fill="#d0494b">
   <tspan font-size="20px" font-weight="300" fill="#ffffff">AI-Peer-Cloud</tspan>
  </text>
  <path d="m287.24 380.8c-6.06-11.47-18.04-18.8-31.05-18.8-17.669 0-32.529 13.247-34.747 30.491-11.46-0.89-21.44 8.22-21.44 19.84 0 10.213 5.5448 15.098 10.276 17.392 4.8794 2.4423 9.8327 2.5163 10.794 2.5163h68.238c0.22179 0 23.066-3.2564 23.066-25.755 0-13.914-11.237-25.385-25.136-25.681z" fill="#1f2726"/>
 </g>
 <g>
  <path d="m351.72 256.81c-0.13762 1.1879-0.20642 2.5244-0.20642 4.0093 0 15.889 8.6009 31.183 19.197 31.183s19.197-15.369 19.197-31.183c0-1.3364-0.0688-2.5986-0.20642-3.7865-5.5046-2.3759-12.179-3.7123-19.266-3.7123-6.8808 0.0743-13.349 1.3364-18.716 3.4896z" fill="#32afe5"/>
  <path d="m318.28 237.8s33.509 4.232 28.899 14.775c-4.5413 10.469-32.271-8.464-28.899-14.775z" fill="#32afe5"/>
  <path d="m370.71 228.08c-7.844 0-14.587 7.8701-17.615 19.155 5.0917 1.8562 11.009 2.9698 17.34 2.9698 6.5367 0 12.591-1.1137 17.821-3.1183-3.0275-11.211-9.7707-19.007-17.545-19.007zm-2.3395 15.517c-0.20642 0.22273-0.48165 0.37123-0.75688 0.37123-0.27524 0-0.55047-0.1485-0.75689-0.37123-0.82569-0.89095-1.7202-1.3364-2.5458-1.3364-1.5138 0-2.6835 1.3364-2.7523 1.3364-0.41285 0.44547-1.101 0.51972-1.5826 0-0.41284-0.44548-0.48165-1.1879 0-1.7077 0.0689-0.0743 1.8578-2.0046 4.2661-2.0789 1.5138 0 2.8899 0.66822 4.1972 2.0046 0.41284 0.51973 0.41284 1.3364-0.0689 1.7819zm11.628 0c-0.82569-0.89095-1.7202-1.3364-2.5458-1.3364-1.5138 0-2.6835 1.3364-2.6835 1.3364-0.20643 0.22273-0.48166 0.37123-0.82569 0.37123-0.27523 0-0.55046-0.0743-0.75688-0.29699-0.41285-0.44547-0.48166-1.1879-0.0689-1.7076 0.0689-0.0743 1.8578-2.0046 4.2661-2.0789h0.0688c1.5138 0 2.8899 0.66821 4.1285 2.0046 0.41284 0.44548 0.41284 1.2622 0 1.7077-0.48166 0.44547-1.1697 0.44547-1.5826 0z" fill="#32afe5"/>
  <path d="m445.14 256.81c-0.13762 1.1879-0.20643 2.5244-0.20643 4.0093 0 15.889 8.601 31.183 19.197 31.183s19.197-15.369 19.197-31.183c0-1.3364-0.0688-2.5986-0.20643-3.7865-5.5046-2.3759-12.179-3.7123-19.266-3.7123-6.8808 0.0743-13.349 1.3364-18.716 3.4896z" fill="#1f2726"/>
  <path d="m464.14 228.08c-7.844 0-14.587 7.8701-17.615 19.155 5.0917 1.8562 11.009 2.9698 17.34 2.9698 6.5367 0 12.591-1.1137 17.821-3.1183-3.0275-11.211-9.7707-19.007-17.545-19.007z" fill="#1f2726"/>
  <path d="m397.75 256.81c-0.13761 1.1879-0.20642 2.5244-0.20642 4.0093 0 15.889 8.6009 31.183 19.197 31.183s19.197-15.369 19.197-31.183c0-1.3364-0.0688-2.5986-0.20642-3.7865-5.5046-2.3759-12.179-3.7123-19.266-3.7123-6.8808 0.0743-13.349 1.3364-18.716 3.4896z" fill="#1f2726"/>
  <path d="m416.74 228.08c-7.844 0-14.587 7.8701-17.615 19.155 5.0917 1.8562 11.009 2.9698 17.34 2.9698 6.5367 0 12.591-1.1137 17.821-3.1183-3.0275-11.211-9.7707-19.007-17.545-19.007z" fill="#1f2726"/>
  <g transform="translate(-2)">
   <path fill="#1f2726" d="m436 174c-13.239 0-24 9.5539-24 21.325 0 5.5796 2.3363 10.777 6.655 14.751l-4.8142 10.394c-0.2124 0.38216-0.1416 0.91717 0.14159 1.2229 0.21238 0.22929 0.42478 0.30573 0.70797 0.30573 0.1416 0 0.28318 0 0.42478-0.0765l12.885-6.4967c2.5487 0.76432 5.239 1.2229 8.0001 1.2229 13.239 0 24-9.5539 24-21.325s-10.762-21.325-24-21.325z"/>
   <g transform="translate(0,4)" stroke="#32afe5" stroke-linecap="round" fill="none">
    <path d="m429.04 185.04 13.912 13.912" stroke-width="2.0671"/>
    <path d="m442.96 185.04-13.912 13.912" stroke-width="2.0671"/>
   </g>
  </g>
  <g transform="translate(48)">
   <path fill="#1f2726" d="m436 174c-13.239 0-24 9.5539-24 21.325 0 5.5796 2.3363 10.777 6.655 14.751l-4.8142 10.394c-0.2124 0.38216-0.1416 0.91717 0.14159 1.2229 0.21238 0.22929 0.42478 0.30573 0.70797 0.30573 0.1416 0 0.28318 0 0.42478-0.0765l12.885-6.4967c2.5487 0.76432 5.239 1.2229 8.0001 1.2229 13.239 0 24-9.5539 24-21.325s-10.762-21.325-24-21.325z"/>
   <g transform="translate(0,4)" stroke="#32afe5" stroke-linecap="round" fill="none">
    <path d="m429.04 185.04 13.912 13.912" stroke-width="2.0671"/>
    <path d="m442.96 185.04-13.912 13.912" stroke-width="2.0671"/>
   </g>
  </g>
  <g>
   <path fill="#1f2726" d="m324 174c13.239 0 24 9.5539 24 21.325 0 5.5796-2.3363 10.777-6.655 14.751l4.8142 10.394c0.2124 0.38216 0.1416 0.91717-0.14159 1.2229-0.21238 0.22929-0.42478 0.30573-0.70797 0.30573-0.1416 0-0.28318 0-0.42478-0.0765l-12.885-6.4967c-2.5487 0.76432-5.239 1.2229-8.0001 1.2229-13.239 0-24-9.5539-24-21.325s10.762-21.325 24-21.325z"/>
   <path d="m324 183.4v16" stroke="#32afe5" stroke-linecap="round" stroke-width="2" fill="none"/>
   <circle cx="324" stroke-linecap="round" stroke-dashoffset="10" stroke="#32afe5" cy="204" r="1.0198" stroke-width="1.9603" fill="#fff"/>
  </g>
 </g>
</svg>
